<svg xmlns="http://www.w3.org/2000/svg" width="167.606" height="162.079" viewBox="0 0 167.606 162.079"><defs><style>.a{fill:#fff;}.b{fill:#ff9500;}.c{opacity:0.35;}.d{opacity:0.3;}.e{fill:#002087;}</style></defs><g transform="translate(-0.091 -0.1)"><path class="a" d="M61.1,162.179a34.045,34.045,0,0,1-15.448-3.862c-10.379-5.37-16.473-15.146-17.137-27.516a53.175,53.175,0,0,1,2.353-17.922c-9.051-1.629-17.077-7.06-22.809-15.568a46.446,46.446,0,0,1-7.9-28.24c.905-15.93,11.525-27.094,25.766-27.094h1.086a45.791,45.791,0,0,1,1.146-16.111C31.776,12.108,42.215,3.539,55.309,3.539h.483c1.207,0,2.414.121,3.621.241a34.514,34.514,0,0,1,16.292,6.758,44.914,44.914,0,0,1,4.1,3.5A35.536,35.536,0,0,1,90.368,4.2,29.143,29.143,0,0,1,105.393.1h.422a29.316,29.316,0,0,1,17.2,5.914c7.06,5.37,11.525,13.336,12.974,22.93a24.3,24.3,0,0,1,2.957-.181h.422a27.815,27.815,0,0,1,10.8,2.353c10.62,4.707,17.016,14.9,17.5,28,.543,13.818-5.974,32.524-21.542,40.912a29.152,29.152,0,0,1-4.888,2.112,50.858,50.858,0,0,1,6.819,17.68c2.595,15.93-5.37,29.266-20.758,34.817a32.281,32.281,0,0,1-11.887,2.293h-.483c-6.155-.121-11.344-1.871-15.508-3.319a39.335,39.335,0,0,0-6.638-1.871c-2.353.3-5.491,1.931-9.051,3.8a93.528,93.528,0,0,1-8.508,4.043,36.2,36.2,0,0,1-13.577,2.595Z" transform="translate(0 0)"/><path class="a" d="M165.522,63.42c-.422-10.741-5.491-19.008-13.939-22.749a21.231,21.231,0,0,0-8.448-1.81,22.026,22.026,0,0,0-8.81,1.69c.06-9.715-3.077-19.551-11.163-25.706A22.956,22.956,0,0,0,109.525,10.2a23.8,23.8,0,0,0-12.31,3.258c-5.853,3.5-10.017,8.991-12.732,15.267a38.482,38.482,0,0,0-8.629-9.293,28.168,28.168,0,0,0-13.4-5.612,24.855,24.855,0,0,0-2.9-.181c-10.62-.181-18.706,6.517-21.723,17.861-1.75,6.577-1.509,14.6.483,22.146l-2.172-.724a24.288,24.288,0,0,0-6.095-.845C18.831,51.895,10.745,60.524,9.961,73.5,9,90.272,19.8,109.521,37.537,111.332c.664.06,1.328.121,1.991.121a23.013,23.013,0,0,0,3.56-.241c-3.319,7.724-5.25,15.87-4.827,23.352.6,10.137,5.551,18.163,13.939,22.447a28.818,28.818,0,0,0,12.793,3.138,30.376,30.376,0,0,0,11.767-2.172c2.836-1.146,5.431-2.474,7.965-3.8,4.345-2.293,8.146-4.224,11.827-4.465a33.159,33.159,0,0,1,8.629,2.233c3.983,1.388,8.508,2.9,13.637,3.017h0a26.719,26.719,0,0,0,10.137-1.871c12.732-4.586,19.068-15.086,16.956-28.18-1.207-7.482-5.431-15.749-11.465-23.352.362,0,.724.06,1.086.06a23.746,23.746,0,0,0,11.525-2.776C159.85,91.9,166.005,75.79,165.522,63.42Z" transform="translate(-3.89 -4.004)"/><g transform="translate(12.608 32.743)"><path class="a" d="M98.522,121.178c-7.241.06-8.388-5.31-8.569-6.939q-2.625-24.167-5.31-48.274a10.267,10.267,0,0,1,1.267-6.638,7.585,7.585,0,0,1,5.672-3.741c3.681-.483,7.362-.845,11.043-1.207a28.729,28.729,0,0,1,5.069-.121,20.7,20.7,0,0,1,13.215,5.129c4.4,4.043,7.06,9.836,7.9,17.2a28.827,28.827,0,0,1-3.2,17.077,20.317,20.317,0,0,1-7.422,7.784,30.5,30.5,0,0,1-4.888,2.353c.241,2.353.543,4.707.784,7.06.181,1.569.241,6.939-6.7,8.931a32.235,32.235,0,0,1-4.767,1.086A38.578,38.578,0,0,1,98.522,121.178Z" transform="translate(-46.106 -54.196)"/><path class="a" d="M105.841,118.477c-3.8.543-5.733.3-5.853-.664-1.75-16.051-3.56-32.162-5.31-48.274-.181-1.69.362-2.595,1.69-2.776q5.521-.724,11.043-1.267c6.155-.6,10.8.543,13.879,3.319s4.948,7,5.551,12.611a22.364,22.364,0,0,1-2.474,13.215,13.24,13.24,0,0,1-5.189,5.31,21.449,21.449,0,0,1-8.569,2.836L112.056,116c.06.6-.664,1.086-2.233,1.569A38.961,38.961,0,0,1,105.841,118.477Zm2.052-39.946c.422,3.922.845,7.784,1.267,11.706.241-.06.543-.06.784-.121a4.833,4.833,0,0,0,3.5-2.052A6.649,6.649,0,0,0,114.47,83.3a6.881,6.881,0,0,0-1.509-4.1c-.784-.784-2.052-1.086-3.8-.845C108.8,78.41,108.315,78.471,107.893,78.531Z" transform="translate(-50.106 -58.616)"/><path class="a" d="M164.951,117.9a21,21,0,0,1-13.818-5.129c-4.948-4.164-7.9-10.5-8.81-18.585-.905-7.965.483-14.844,3.983-20.215a18.3,18.3,0,0,1,15.387-8.689,19.21,19.21,0,0,1,3.741.181,21.78,21.78,0,0,1,12.008,5.189,21.309,21.309,0,0,1,7.422,13.577c.6,4.888-.3,8.931-2.414,12.068a17.962,17.962,0,0,1,3.138,7.482c.6,5.008-1.991,7.543-3.5,8.569a29.867,29.867,0,0,1-14,5.31C167,117.783,165.977,117.843,164.951,117.9Z" transform="translate(-68.908 -58.585)"/><path class="a" d="M182.483,111.49a22.526,22.526,0,0,1-11.224,4.043,15.487,15.487,0,0,1-12.491-3.741c-3.621-3.077-5.793-7.784-6.517-14.06s.3-11.465,2.957-15.508a13.383,13.383,0,0,1,11.163-6.336c4.767-.181,8.569,1.026,11.465,3.56a14.008,14.008,0,0,1,5.008,9.112c.965,7.965-2.957,12.189-11.827,12.974-1.629.121-3.258.3-4.888.422a3.83,3.83,0,0,0,1.569,3.077,6.254,6.254,0,0,0,3.56.543,20,20,0,0,0,9.172-3.258c.06-.06.3.3.784.965a12.329,12.329,0,0,1,2.353,5.189C183.69,109.982,183.328,110.947,182.483,111.49ZM171.018,90.612c-.241-2.112-1.328-3.138-3.319-3.017a3.364,3.364,0,0,0-2.233,1.026,3.4,3.4,0,0,0-.664,2.655c.121.784.181,1.569.3,2.353,1.267-.121,2.534-.181,3.862-.3C170.535,93.267,171.259,92.362,171.018,90.612Z" transform="translate(-72.862 -62.792)"/><path class="a" d="M216.62,117.762c-.965,0-2.052,0-3.379-.06H213c-2.595-.241-4.526-.483-5.914-.724-6.336-1.146-6.758-5.37-6.7-7.12.422-6.819.784-13.7,1.207-20.456a8.3,8.3,0,0,1-4.224-5.914,22.864,22.864,0,0,1-.3-5.672,27.8,27.8,0,0,1,.543-4.043c.181-.965,1.267-5.491,5.25-6.034a2.936,2.936,0,0,1,.06-.724c.121-2.595,1.629-6.758,10.017-5.31a24.133,24.133,0,0,1,2.534.543A36.111,36.111,0,0,1,221.146,64c6.034,2.595,6.034,7,6.034,7.9a2.264,2.264,0,0,1-.06.6.222.222,0,0,1,.181.06,8.467,8.467,0,0,1,6.4,6.819,19.834,19.834,0,0,1,.181,4.827,16.23,16.23,0,0,1-.785,4.586,6.252,6.252,0,0,1-6.215,4.526c-.362,6.155-.784,12.31-1.147,18.465-.121,2.172-1.69,4.948-5.612,5.732A26.46,26.46,0,0,1,216.62,117.762Z" transform="translate(-90.707 -57.055)"/><path class="a" d="M223.665,115.282c-.06.543-2.052.724-6.095.422-4.827-.543-7.181-1.026-7.181-1.448.483-8.629,1.026-17.2,1.509-25.706-1.207-.181-2.474-.362-3.681-.543-.965-.121-1.327-1.931-1.146-5.31a26.071,26.071,0,0,1,.422-3.2c.241-1.267.6-1.81,1.146-1.69l3.8.724L212.8,72.2c.06-.965,2.112-1.026,6.215-.121,4.043.905,6.095,1.69,6.034,2.414-.121,1.448-.181,2.957-.3,4.4,0,.664-.06,1.267-.06,1.931,2.052.422,4.1.784,6.155,1.207.845.181,1.146,1.81.905,4.948-.181,3.138-.724,4.646-1.509,4.526-1.69-.3-3.439-.543-5.129-.845C224.69,98.809,224.147,107.016,223.665,115.282Z" transform="translate(-94.674 -61.033)"/><path class="a" d="M43.02,202.6a17.157,17.157,0,0,1-6.7-1.69,13.752,13.752,0,0,1-7.362-8.87,27.148,27.148,0,0,1-1.026-8.569,17.984,17.984,0,0,1,1.509-7.241c-3.439-3.077-5.974-7.422-7.6-12.853A23.155,23.155,0,0,1,23.408,146,23.558,23.558,0,0,1,36.5,134.474a37.376,37.376,0,0,1,10.379-2.414,15.827,15.827,0,0,1,1.629-.06c3.258,0,7.482.965,9.232,5.672.06.06.06.181.121.241l.181.724a29.347,29.347,0,0,1,.724,9.655,27.27,27.27,0,0,1-1.086,7.06,6.594,6.594,0,0,1,.905.483c4.526,2.414,7.784,6.7,9.413,12.43a29.59,29.59,0,0,1-.3,19.008c-2.293,6.155-6.939,10.681-13.879,13.336-.06,0-.06,0-.06.06a33.616,33.616,0,0,1-8.388,1.991C44.588,202.6,43.8,202.6,43.02,202.6Z" transform="translate(-20.835 -85.051)"/><path class="a" d="M38.883,183.771a27.164,27.164,0,0,0,5.069,1.569,11.018,11.018,0,0,0,6.276-.06c1.81-.664,2.534-1.75,2.052-3.379a2.824,2.824,0,0,0-1.328-1.69,13.04,13.04,0,0,0-3.379-.965c-1.569-.241-2.776-.483-3.56-.664a25.454,25.454,0,0,1-3.319-1.086,11.812,11.812,0,0,1-3.439-2.052c-2.534-2.172-4.4-5.431-5.612-9.655A16.427,16.427,0,0,1,32.729,153.6a16.841,16.841,0,0,1,9.715-8.387,33.5,33.5,0,0,1,8.87-2.052q4.254-.362,4.888,1.448c.06.121.06.3.121.422a20.316,20.316,0,0,1,.422,7q-.272,4.435-.724,5.069a15.461,15.461,0,0,0-8.086.3c-2.172.784-3.017,2.052-2.474,3.8.3,1.086,1.388,1.75,3.2,1.991.422.06.965.181,1.69.241.724.121,1.569.241,2.595.422a27.2,27.2,0,0,1,3.2.784,22.552,22.552,0,0,1,3.922,1.69c2.957,1.569,5.069,4.4,6.215,8.388a22.448,22.448,0,0,1-.121,14.241c-1.569,4.284-5.008,7.482-10.258,9.413a29.2,29.2,0,0,1-7.181,1.69,11.22,11.22,0,0,1-6.276-1.086,6.9,6.9,0,0,1-3.8-4.4,19.7,19.7,0,0,1-.784-6.276A10.386,10.386,0,0,1,38.883,183.771Z" transform="translate(-24.845 -89.453)"/><path class="a" d="M91.192,195.782a6.411,6.411,0,0,1-6.457-5.31c-1.026-4.827-2.052-9.715-3.077-14.542-2.715-.905-4.586-3.8-5.612-8.629a24.844,24.844,0,0,1-.483-3.439c-.3-3.379.664-5.733,2.052-7.181a8.1,8.1,0,0,1,4.164-8.146,16.107,16.107,0,0,1,4.465-1.69A17.919,17.919,0,0,1,91.132,146a6.733,6.733,0,0,1,6.517,4.465h0c5.612,0,7,6.7,7.482,8.931a20.849,20.849,0,0,1,.6,4.646,8.267,8.267,0,0,1-2.9,6.7c.965,4.646,1.991,9.232,2.957,13.818a7.865,7.865,0,0,1-4.586,8.87,27.848,27.848,0,0,1-3.983,1.448c-.06,0-.06,0-.121.06h-.121A30.146,30.146,0,0,1,91.192,195.782Z" transform="translate(-42.517 -90.604)"/><path class="a" d="M103.895,190.58c.121.422-1.267,1.086-4.1,1.931-3.379.845-5.129,1.086-5.189.724-1.448-6.7-2.836-13.456-4.284-20.154-.845.241-1.69.483-2.595.724-.664.181-1.267-1.026-1.871-3.681q-.181-1-.362-2.534c-.06-1.026.06-1.569.422-1.69.905-.241,1.81-.483,2.655-.724-.362-1.69-.724-3.379-1.086-5.008-.181-.784,1.207-1.509,4.043-2.293s4.345-.845,4.465-.241c.241,1.207.543,2.414.784,3.621.121.543.241,1.026.362,1.569,1.448-.422,2.836-.784,4.284-1.207.543-.181,1.146,1.086,1.69,3.741s.543,4.043,0,4.224c-1.207.362-2.414.664-3.56,1.026C101.059,177.244,102.507,183.942,103.895,190.58Z" transform="translate(-46.47 -95.056)"/><path class="a" d="M130.884,184.5a16.7,16.7,0,0,1-12.913-4.646c-4.164-3.862-6.7-9.715-7.543-17.258s.362-13.939,3.56-19.008a19.224,19.224,0,0,1,14.422-9.112,26.069,26.069,0,0,1,3.017-.181,18.571,18.571,0,0,1,12.913,5.25c4.164,3.922,6.638,9.474,7.482,16.534s-.362,13.094-3.5,18.1a21.719,21.719,0,0,1-14.361,9.9A17.963,17.963,0,0,1,130.884,184.5Zm-2.052-24.921,5.069-.6" transform="translate(-56.262 -85.964)"/><path class="a" d="M125.947,178.987c-3.017-2.776-4.827-7.12-5.491-12.913s.181-10.56,2.474-14.18a13.441,13.441,0,0,1,10.2-6.4,12.917,12.917,0,0,1,11.224,3.379c3.017,2.836,4.827,7,5.431,12.551.664,5.551-.181,10.077-2.474,13.758a14.734,14.734,0,0,1-10.137,6.758C132.705,182.728,128.964,181.763,125.947,178.987Zm8.508-21.723c-2.414.362-3.379,2.715-2.9,7,.483,4.345,1.931,6.276,4.345,5.853s3.379-2.715,2.9-7S136.869,156.9,134.455,157.264Z" transform="translate(-60.255 -90.342)"/><path class="a" d="M175.019,181.818a5.906,5.906,0,0,1-6.879-5.31c-.543-5.069-1.086-10.137-1.69-15.206a7.645,7.645,0,0,1-2.776-2.776,13.687,13.687,0,0,1-1.871-5.732c-1.328-12.551,6.758-14.12,8.388-14.3a7.925,7.925,0,0,1,1.69-.06,11.416,11.416,0,0,1,5.491,1.388,12.606,12.606,0,0,1,6.638-2.776,10.991,10.991,0,0,1,1.991-.06c5.129.121,7.422,2.957,8.327,4.586,0,.06.06.06.06.121a9.561,9.561,0,0,1,1.026,3.5,21.742,21.742,0,0,1-.181,4.646,21.427,21.427,0,0,1-1.207,5.129c-.483,1.146-1.629,3.8-4.526,4.767l1.448,12.491a7,7,0,0,1-4.345,7.12,14.808,14.808,0,0,1-1.81.664c-1.026.3-2.474.664-4.465,1.086h-.121C177.734,181.516,176.1,181.757,175.019,181.818Zm13.939-26.128" transform="translate(-76.682 -87.018)"/><path class="a" d="M188.9,177.447c.06.241-1.75.785-5.31,1.509-3.621.6-5.431.845-5.431.6-.724-6.577-1.448-13.215-2.233-19.853-.543.06-1.086.181-1.569.241-.664.121-1.147-.241-1.629-.965a7.14,7.14,0,0,1-.905-2.836q-.724-6.517,3.077-7.06a6,6,0,0,1,4.586,1.086,4.755,4.755,0,0,1,2.172,3.5,10.382,10.382,0,0,1,2.9-4.284,6.994,6.994,0,0,1,4.1-1.931q3.439-.362,4.345,1.267a4.509,4.509,0,0,1,.362,1.327,18.022,18.022,0,0,1-.181,3.259,13.838,13.838,0,0,1-.784,3.5c-.3.724-.483,1.146-.6,1.146a4.912,4.912,0,0,1-1.147-.3,4.861,4.861,0,0,0-1.81-.181c-1.509.241-2.112,1.509-1.871,3.862C187.633,166.646,188.237,172.076,188.9,177.447Z" transform="translate(-80.668 -91.155)"/><path class="a" d="M219.8,182.21a16.69,16.69,0,0,1-9.112-1.267c-4.646-2.052-7.844-6.155-9.594-12.189-1.69-5.914-1.388-11.525.905-16.413a17.479,17.479,0,0,1,11.706-9.9,23.374,23.374,0,0,1,6.276-.845,17.9,17.9,0,0,1,7.422,1.75,15.067,15.067,0,0,1,7.965,8.87,13.427,13.427,0,0,1-.121,9.112,11.425,11.425,0,0,1,3.077,4.526,7.429,7.429,0,0,1-1.991,7.784,30.808,30.808,0,0,1-10.8,7.06A26.917,26.917,0,0,1,219.8,182.21Z" transform="translate(-91.895 -88.859)"/><path class="a" d="M233.34,168.065q0-.09.724.543a7.647,7.647,0,0,1,2.474,3.138,2.046,2.046,0,0,1-.422,2.293,21.873,21.873,0,0,1-8.267,5.189,12.744,12.744,0,0,1-10.2,0q-4.8-2.172-6.7-8.689a16.273,16.273,0,0,1,.543-11.767,12.273,12.273,0,0,1,7.9-6.758c3.62-1.086,6.758-.965,9.232.3a8.876,8.876,0,0,1,4.948,5.491c1.69,5.431-.845,9.232-7.6,11.646-1.267.422-2.534.905-3.8,1.328a2.429,2.429,0,0,0,1.569,1.871,5.02,5.02,0,0,0,2.836-.362,20.259,20.259,0,0,0,6.758-4.224m-8.689-6.4a2.02,2.02,0,0,0-2.9-1.509,2.861,2.861,0,0,0-1.569,1.207,2.379,2.379,0,0,0-.181,2.052c.181.543.3,1.086.483,1.629.965-.3,1.991-.664,2.957-.965A1.783,1.783,0,0,0,224.651,161.669Z" transform="translate(-95.902 -92.696)"/></g><path class="b" d="M165.522,63.42c-.422-10.741-5.491-19.008-13.939-22.749a21.231,21.231,0,0,0-8.448-1.81,22.026,22.026,0,0,0-8.81,1.69c.06-9.715-3.077-19.551-11.163-25.706A22.956,22.956,0,0,0,109.525,10.2a23.8,23.8,0,0,0-12.31,3.258c-5.853,3.5-10.017,8.991-12.732,15.267a38.482,38.482,0,0,0-8.629-9.293,28.168,28.168,0,0,0-13.4-5.612,24.855,24.855,0,0,0-2.9-.181c-10.62-.181-18.706,6.517-21.723,17.861-1.75,6.577-1.509,14.6.483,22.146l-2.172-.724a24.288,24.288,0,0,0-6.095-.845C18.831,51.895,10.745,60.524,9.961,73.5,9,90.272,19.8,109.521,37.537,111.332c.664.06,1.328.121,1.991.121a23.013,23.013,0,0,0,3.56-.241c-3.319,7.724-5.25,15.87-4.827,23.352.6,10.137,5.551,18.163,13.939,22.447a28.818,28.818,0,0,0,12.793,3.138,30.376,30.376,0,0,0,11.767-2.172c2.836-1.146,5.431-2.474,7.965-3.8,4.345-2.293,8.146-4.224,11.827-4.465a33.159,33.159,0,0,1,8.629,2.233c3.983,1.388,8.508,2.9,13.637,3.017h0a26.719,26.719,0,0,0,10.137-1.871c12.732-4.586,19.068-15.086,16.956-28.18-1.207-7.482-5.431-15.749-11.465-23.352.362,0,.724.06,1.086.06a23.746,23.746,0,0,0,11.525-2.776C159.85,91.9,166.005,75.79,165.522,63.42Z" transform="translate(-3.89 -4.004)"/><g class="c" transform="translate(15.34 15.618)"><path class="a" d="M155.062,27.919c-10.8,6.457-14.241,23.232-11.465,36.205,1.569,7.241,7.6,13.034,15.025,12.913,18.827-.422,28.964-36.085,13.034-48.213A14.871,14.871,0,0,0,155.062,27.919Z" transform="translate(-71.887 -25.817)"/><path class="a" d="M210.074,75.42c-13.758,8.569-20.516,35.783-5.612,42.541a15.161,15.161,0,0,0,13.4-.483c14.663-7.9,20.094-36.447,5.069-43.084A14.226,14.226,0,0,0,210.074,75.42Z" transform="translate(-93.047 -44.656)"/><path class="a" d="M41.074,95.706c-23.956-6.336-18.947,39.584,4.4,41.938a13.292,13.292,0,0,0,8.81-2.112c8.75-6.095,6.577-19.611.845-29.085A23.906,23.906,0,0,0,41.074,95.706Z" transform="translate(-25.361 -53.295)"/><path class="a" d="M95.21,139.466c-16.473,11.1-34.395,49.058-13.517,59.859a21.375,21.375,0,0,0,17.62.664c7.6-3.017,14.542-8.569,22.93-8.87,10.5.422,18.525,8.267,29.447,3.862C189.947,181.525,126.648,111.769,95.21,139.466Z" transform="translate(-43.956 -68.333)"/><path class="a" d="M82.242,77.489c14.844,7.784,27.033-4.4,25.525-18.163-.724-9.172-5.008-18.284-12.37-23.835a19.739,19.739,0,0,0-9.474-3.983C63.717,28.733,65.648,68.438,82.242,77.489Z" transform="translate(-42.876 -28.019)"/></g><g class="d" transform="translate(17.596 15.612)"><path class="a" d="M156.869,30.328a14.977,14.977,0,0,1,16.594.845c10.8,8.207,9.655,27.275,1.931,38.8,9.293-11.1,11.525-32.4-.121-41.214a14.977,14.977,0,0,0-16.594-.845,21.02,21.02,0,0,0-6.879,6.758A21.54,21.54,0,0,1,156.869,30.328Z" transform="translate(-77.76 -25.807)"/><path class="a" d="M212.413,77.805a13.867,13.867,0,0,1,12.853-1.026c11.706,5.189,10.982,23.594,3.2,35.24,9.413-11.284,11.163-32.1-1.388-37.653a13.894,13.894,0,0,0-12.853,1.026,26.893,26.893,0,0,0-7.724,7.724A25.8,25.8,0,0,1,212.413,77.805Z" transform="translate(-99.453 -44.621)"/><path class="a" d="M40.746,98.12a23.5,23.5,0,0,1,14.06,10.741c4.646,7.724,6.939,18.042,2.957,24.982,6.336-6.638,4.043-18.706-1.147-27.4a23.673,23.673,0,0,0-14.06-10.741c-6.638-1.75-11.043.483-13.456,4.767C31.634,97.879,35.5,96.732,40.746,98.12Z" transform="translate(-29.1 -53.29)"/><path class="a" d="M100.915,141.88c27.516-24.2,79.35,26.068,66.316,48.093,18.887-20.4-35.9-75.669-64.506-50.506A47.959,47.959,0,0,0,91.2,151.293,45.642,45.642,0,0,1,100.915,141.88Z" transform="translate(-53.728 -68.327)"/><path class="a" d="M86.165,34.022A19.739,19.739,0,0,1,95.639,38c7.362,5.551,11.646,14.663,12.37,23.835a19.947,19.947,0,0,1-2.776,12.792,19.568,19.568,0,0,0,4.586-15.206c-.724-9.172-5.008-18.284-12.37-23.835a19.738,19.738,0,0,0-9.474-3.983c-6.336-.784-10.681,1.81-13.275,6.155C77.355,34.927,81.157,33.419,86.165,34.022Z" transform="translate(-47.184 -28.053)"/></g><g transform="translate(19.406 62.367)"><path class="e" d="M43.263,110.845l.121-.664c.121-.905.3-1.75.483-2.595l.181-.543c.121-.422.422-.543.845-.543.241.06.422.06.664.121l2.776.784a1.169,1.169,0,0,1,.845.965c.3,1.388.664,2.836,1.086,4.224a40.75,40.75,0,0,0,2.414,6.577c.241.543.543,1.086.784,1.629.362.664.362.965-.241,1.448-.664.6-1.267,1.267-1.991,1.81-.724.6-1.267.543-1.69-.3-.543-1.086-1.026-2.172-1.569-3.2-.181-.362-.362-.784-.543-1.147h-.121a10.774,10.774,0,0,0-.121,1.388,3.1,3.1,0,0,1-1.086,2.534c-.543.483-1.086,1.086-1.629,1.509-.784.664-1.328.543-1.871-.3a19.311,19.311,0,0,1-1.569-3.621,2.26,2.26,0,0,0-.422-.724,2.475,2.475,0,0,0-.06.664c0,1.569,0,3.138.06,4.707a1.5,1.5,0,0,1-.422,1.146c-.543.483-.965,1.026-1.509,1.569l-.664.543c-.6.422-.965.422-1.388-.181a6.366,6.366,0,0,1-.905-1.81,59.591,59.591,0,0,1-1.81-7.362c-.362-1.629-.784-3.258-1.086-4.888a35.445,35.445,0,0,1-.724-5.732,8.178,8.178,0,0,1,.121-1.207c.06-.483.3-.6.724-.543a9.269,9.269,0,0,1,1.81.664,1.433,1.433,0,0,1,.724,1.086c.241.784.483,1.629.724,2.414a10.366,10.366,0,0,0,.664,1.75l.362-1.509c.241-.845.362-1.69.664-2.474.181-.543.422-.724,1.026-.6a6.364,6.364,0,0,1,1.146.3c.6.181,1.207.422,1.81.543a1.489,1.489,0,0,1,1.147,1.147l.121.483C43.143,110.845,43.2,110.845,43.263,110.845Z" transform="translate(-32.1 -104.563)"/><path class="e" d="M74.943,119.709a2.688,2.688,0,0,1-.181,1.388,2.679,2.679,0,0,0,.483,2.353A4.033,4.033,0,0,0,77.96,124.9a10.12,10.12,0,0,0,.181-1.086A24.431,24.431,0,0,0,77.9,120.8a38.67,38.67,0,0,0-1.629-6.155l-.241.483a20.265,20.265,0,0,1-.965,1.991,5.332,5.332,0,0,1-3.379,2.414,2.705,2.705,0,0,1-1.388,0,25.8,25.8,0,0,1-2.595-1.086,3.414,3.414,0,0,1-1.69-1.75,3.567,3.567,0,0,1-.362-.845,29.013,29.013,0,0,1-1.81-7.422c-.121-.6-.241-1.086-.362-1.629a.835.835,0,0,1,.181-.845l.362-.362A19.121,19.121,0,0,1,68,103.538c.181-.06.422-.121.6-.181.664-.181.845,0,.905.664.06.784.121,1.629.121,2.474a24.454,24.454,0,0,0,.6,5.551c.181.664.483,1.388.724,2.052a2.5,2.5,0,0,0,.422.784c.121-.181.181-.241.3-.422a8.7,8.7,0,0,0,.784-2.414c.181-1.086.362-2.233.6-3.319a3.41,3.41,0,0,1,0-.784.509.509,0,0,1,.121-.422,1.837,1.837,0,0,1,.483-.483,15.173,15.173,0,0,1,4.465-2.112c.724-.241.845-.181,1.207.483a9.106,9.106,0,0,1,1.207,3.741c.3,1.931.664,3.862,1.026,5.793a21.744,21.744,0,0,1,.121,8.146,13.136,13.136,0,0,1-.845,2.9,2.755,2.755,0,0,1-3.258,2.052,9.193,9.193,0,0,1-5.069-2.052,3.338,3.338,0,0,1-.905-3.862,2.531,2.531,0,0,1,.543-.845,6.245,6.245,0,0,1,2.655-1.388C74.762,119.709,74.822,119.709,74.943,119.709Z" transform="translate(-44.531 -103.29)"/></g><g transform="translate(18.71 39.265)"><path class="e" d="M105.841,118.344c-3.8.543-5.733.3-5.853-.664-1.75-16.111-3.56-32.283-5.31-48.455-.181-1.69.362-2.655,1.69-2.776q5.521-.724,11.043-1.267c6.155-.664,10.8.543,13.879,3.379,3.077,2.776,4.948,7.06,5.551,12.672a22.279,22.279,0,0,1-2.474,13.215,13.24,13.24,0,0,1-5.189,5.31,21.449,21.449,0,0,1-8.569,2.836c.483,4.4.965,8.87,1.448,13.275.06.6-.664,1.086-2.233,1.569A38.961,38.961,0,0,1,105.841,118.344Zm2.052-40.127,1.267,11.767c.241-.06.543-.06.784-.121a4.833,4.833,0,0,0,3.5-2.052,6.649,6.649,0,0,0,1.026-4.767c-.241-1.991-.724-3.379-1.509-4.1q-1.177-1.177-3.8-.905C108.8,78.1,108.315,78.157,107.893,78.217Z" transform="translate(-56.207 -65.005)"/><path class="e" d="M182.483,111.636q-4.164,3.168-11.224,3.983a15.7,15.7,0,0,1-12.491-3.741c-3.621-3.077-5.793-7.844-6.517-14.06-.724-6.276.3-11.465,2.957-15.508a13.127,13.127,0,0,1,11.163-6.215c4.767-.121,8.569,1.147,11.465,3.681a13.948,13.948,0,0,1,4.948,9.112c.965,7.9-2.957,12.068-11.827,12.793-1.629.121-3.258.3-4.888.422a3.83,3.83,0,0,0,1.569,3.077,5.785,5.785,0,0,0,3.56.543,19.918,19.918,0,0,0,9.172-3.2c.06-.06.3.3.784.965a12.478,12.478,0,0,1,2.353,5.129C183.69,110.128,183.328,111.093,182.483,111.636ZM171.018,90.758c-.241-2.112-1.328-3.138-3.319-3.017a3.111,3.111,0,0,0-2.233,1.026,3.335,3.335,0,0,0-.664,2.655c.121.784.181,1.569.3,2.353,1.267-.06,2.595-.181,3.862-.241C170.535,93.413,171.259,92.508,171.018,90.758Z" transform="translate(-78.964 -69.4)"/><path class="e" d="M223.665,115.686c-.06.543-2.052.664-6.095.422-4.827-.543-7.181-1.026-7.181-1.448.483-8.508,1.026-17.016,1.509-25.464-1.207-.181-2.474-.422-3.681-.6-.965-.181-1.327-1.931-1.146-5.25a25.289,25.289,0,0,1,.422-3.138c.241-1.207.6-1.81,1.146-1.69,1.267.241,2.534.483,3.8.784.121-2.112.241-4.164.362-6.276.06-.965,2.112-.965,6.215,0,4.043.965,6.095,1.871,6.034,2.595-.06,1.448-.181,2.9-.241,4.345,0,.664-.06,1.267-.06,1.931,2.052.422,4.1.905,6.095,1.328.784.181,1.146,1.81.905,4.888-.181,3.077-.724,4.526-1.509,4.4-1.69-.3-3.439-.6-5.129-.905Q224.389,103.467,223.665,115.686Z" transform="translate(-100.776 -67.898)"/><path class="e" d="M38.883,183.629a37.094,37.094,0,0,0,5.069,1.69,11.059,11.059,0,0,0,6.276,0c1.81-.6,2.474-1.75,2.052-3.379a2.664,2.664,0,0,0-1.328-1.69,11,11,0,0,0-3.379-.965c-1.569-.241-2.776-.483-3.56-.664a27.724,27.724,0,0,1-3.319-1.146,11.9,11.9,0,0,1-3.439-2.112,19.659,19.659,0,0,1-5.612-9.655,16.092,16.092,0,0,1,1.086-12.068,16.96,16.96,0,0,1,9.715-8.327,33.5,33.5,0,0,1,8.87-2.052q4.254-.362,4.888,1.448c.06.121.06.3.121.422a20.317,20.317,0,0,1,.422,7c-.181,2.957-.422,4.646-.724,5.129a15.527,15.527,0,0,0-8.086.241c-2.172.784-3.017,2.052-2.474,3.8.3,1.086,1.388,1.75,3.2,1.991.422.06.965.181,1.69.3s1.569.241,2.595.422a27.206,27.206,0,0,1,3.2.784,22.552,22.552,0,0,1,3.922,1.69c2.957,1.629,5.069,4.4,6.215,8.448a22.438,22.438,0,0,1-.121,14.241c-1.569,4.284-5.008,7.422-10.258,9.353a28.617,28.617,0,0,1-7.181,1.569,11.84,11.84,0,0,1-6.276-1.207,7.154,7.154,0,0,1-3.8-4.465,18.11,18.11,0,0,1-.724-6.276A10.532,10.532,0,0,1,38.883,183.629Z" transform="translate(-30.946 -96.016)"/><path class="e" d="M103.88,190.721c.121.422-1.267,1.086-4.1,1.931-3.379.845-5.129,1.086-5.189.724-1.448-6.758-2.836-13.517-4.284-20.275-.845.241-1.69.483-2.595.724-.664.181-1.267-1.026-1.871-3.681-.121-.664-.241-1.569-.362-2.595s.06-1.569.422-1.69c.905-.241,1.75-.483,2.655-.724l-1.086-5.069c-.181-.784,1.147-1.509,4.043-2.293,2.836-.784,4.345-.845,4.465-.241.241,1.207.543,2.414.784,3.681.121.543.241,1.086.362,1.569,1.448-.422,2.836-.784,4.284-1.207.543-.181,1.146,1.086,1.69,3.741s.543,4.043,0,4.224c-1.207.362-2.414.664-3.56,1.026C101.044,177.325,102.492,184.023,103.88,190.721Z" transform="translate(-52.557 -101.539)"/><path class="e" d="M125.947,179.108c-3.017-2.836-4.827-7.12-5.491-12.974-.664-5.793.181-10.62,2.474-14.241a13.441,13.441,0,0,1,10.2-6.4,12.917,12.917,0,0,1,11.224,3.379c3.017,2.836,4.827,7,5.431,12.551.664,5.551-.181,10.077-2.474,13.758A14.62,14.62,0,0,1,137.17,182Q130.472,183.362,125.947,179.108Zm8.508-21.844q-3.621.543-2.9,7.06c.483,4.345,1.931,6.276,4.345,5.853s3.379-2.776,2.9-7.06C138.317,158.893,136.869,156.9,134.455,157.264Z" transform="translate(-66.357 -96.865)"/><path class="e" d="M188.9,177.226c0,.241-1.75.784-5.31,1.509-3.621.664-5.431.905-5.431.664-.724-6.577-1.448-13.155-2.233-19.792-.543.06-1.086.181-1.569.241a1.557,1.557,0,0,1-1.629-.965,7.139,7.139,0,0,1-.905-2.836q-.724-6.517,3.077-7.06a6,6,0,0,1,4.586,1.086,4.755,4.755,0,0,1,2.172,3.5,10.792,10.792,0,0,1,2.9-4.284,7.378,7.378,0,0,1,4.1-1.931q3.439-.362,4.345,1.267a4.509,4.509,0,0,1,.362,1.328,18.022,18.022,0,0,1-.181,3.258,14.522,14.522,0,0,1-.784,3.5c-.3.724-.483,1.146-.6,1.146a7.277,7.277,0,0,1-1.147-.241,4.861,4.861,0,0,0-1.81-.181c-1.509.241-2.112,1.509-1.871,3.8C187.633,166.546,188.237,171.916,188.9,177.226Z" transform="translate(-86.769 -97.638)"/><path class="e" d="M236.016,173.362a22.188,22.188,0,0,1-8.267,5.25,12.778,12.778,0,0,1-10.2.181c-3.2-1.328-5.431-4.224-6.7-8.508a15.95,15.95,0,0,1,.543-11.646,12.185,12.185,0,0,1,7.9-6.7c3.62-1.026,6.758-.905,9.232.241a8.833,8.833,0,0,1,4.948,5.37c1.69,5.31-.845,8.991-7.6,11.465-1.267.422-2.534.905-3.8,1.328a2.332,2.332,0,0,0,1.569,1.81,4.643,4.643,0,0,0,2.836-.422,19.674,19.674,0,0,0,6.758-4.224c0-.06.241.121.724.483a7.988,7.988,0,0,1,2.474,3.017A2.2,2.2,0,0,1,236.016,173.362Zm-11.4-11.948q-.634-2.172-2.9-1.448a3.063,3.063,0,0,0-1.569,1.146,2.247,2.247,0,0,0-.181,1.991c.181.543.3,1.086.483,1.629.966-.362,1.991-.664,2.957-1.026A1.619,1.619,0,0,0,224.611,161.414Z" transform="translate(-101.964 -99.204)"/></g></g></svg>